<svg xmlns="http://www.w3.org/2000/svg" viewBox="0 0 2571.4 134.0" role="img" aria-label="Swiss-Viet Economic Forum">
<rect x="0" y="0" width="1144.86" height="134.00" fill="#e42026"/>
<path fill="#ffffff" transform="translate(16.000,117.000) scale(0.142857,-0.142857)" d="M280 495Q280 468 330.0 454.5Q380 441 451.0 431.0Q522 421 593.5 403.0Q665 385 715.0 336.5Q765 288 765 210Q765 112 672.5 46.0Q580 -20 400 -20Q218 -20 124.0 44.5Q30 109 30 200Q30 240 70 240H195Q232 240 255 200Q288 145 400 145Q469 145 502.0 164.5Q535 184 535 210Q535 237 485.0 250.5Q435 264 364.0 274.0Q293 284 221.5 302.0Q150 320 100.0 368.5Q50 417 50 495Q50 592 138.0 656.0Q226 720 400 720Q561 720 650.5 656.5Q740 593 740 510Q740 470 700 470H575Q537 470 515 510Q488 555 400 555Q338 555 309.0 537.5Q280 520 280 495Z"/>
<path fill="#ffffff" transform="translate(132.429,117.000) scale(0.142857,-0.142857)" d="M497 700H677Q713 700 722 665L817 270H827L932 665Q941 700 977 700H1137Q1149 700 1157.5 689.5Q1166 679 1162 665L987 35Q976 0 942 0H742Q706 0 697 35L592 420H582L477 35Q468 0 432 0H232Q198 0 187 35L12 665Q8 679 16.5 689.5Q25 700 37 700H197Q233 700 242 665L347 270H357L452 665Q461 700 497 700Z"/>
<path fill="#ffffff" transform="translate(303.000,117.000) scale(0.142857,-0.142857)" d="M515 665V565Q515 550 505.0 540.0Q495 530 480 530H385V170H480Q495 170 505.0 160.0Q515 150 515 135V35Q515 20 505.0 10.0Q495 0 480 0H70Q55 0 45.0 10.0Q35 20 35 35V135Q35 150 45.0 160.0Q55 170 70 170H165V530H70Q55 530 45.0 540.0Q35 550 35 565V665Q35 680 45.0 690.0Q55 700 70 700H480Q495 700 505.0 690.0Q515 680 515 665Z"/>
<path fill="#ffffff" transform="translate(384.429,117.000) scale(0.142857,-0.142857)" d="M280 495Q280 468 330.0 454.5Q380 441 451.0 431.0Q522 421 593.5 403.0Q665 385 715.0 336.5Q765 288 765 210Q765 112 672.5 46.0Q580 -20 400 -20Q218 -20 124.0 44.5Q30 109 30 200Q30 240 70 240H195Q232 240 255 200Q288 145 400 145Q469 145 502.0 164.5Q535 184 535 210Q535 237 485.0 250.5Q435 264 364.0 274.0Q293 284 221.5 302.0Q150 320 100.0 368.5Q50 417 50 495Q50 592 138.0 656.0Q226 720 400 720Q561 720 650.5 656.5Q740 593 740 510Q740 470 700 470H575Q537 470 515 510Q488 555 400 555Q338 555 309.0 537.5Q280 520 280 495Z"/>
<path fill="#ffffff" transform="translate(500.857,117.000) scale(0.142857,-0.142857)" d="M280 495Q280 468 330.0 454.5Q380 441 451.0 431.0Q522 421 593.5 403.0Q665 385 715.0 336.5Q765 288 765 210Q765 112 672.5 46.0Q580 -20 400 -20Q218 -20 124.0 44.5Q30 109 30 200Q30 240 70 240H195Q232 240 255 200Q288 145 400 145Q469 145 502.0 164.5Q535 184 535 210Q535 237 485.0 250.5Q435 264 364.0 274.0Q293 284 221.5 302.0Q150 320 100.0 368.5Q50 417 50 495Q50 592 138.0 656.0Q226 720 400 720Q561 720 650.5 656.5Q740 593 740 510Q740 470 700 470H575Q537 470 515 510Q488 555 400 555Q338 555 309.0 537.5Q280 520 280 495Z"/>
<path fill="#ffffff" transform="translate(617.286,117.000) scale(0.142857,-0.142857)" d="M540 375V285Q540 270 530.0 260.0Q520 250 505 250H75Q60 250 50.0 260.0Q40 270 40 285V375Q40 390 50.0 400.0Q60 410 75 410H505Q520 410 530.0 400.0Q540 390 540 375Z"/>
<path fill="#ffffff" transform="translate(703.000,117.000) scale(0.142857,-0.142857)" d="M233 665 413 210H423L598 665Q612 700 643 700H813Q829 700 837.0 690.0Q845 680 838 665L568 35Q553 1 523 1L318 0Q289 0 273 35L3 665Q-4 680 4.0 690.0Q12 700 28 700H188Q219 700 233 665Z"/>
<path fill="#ffffff" transform="translate(826.000,117.000) scale(0.142857,-0.142857)" d="M515 665V565Q515 550 505.0 540.0Q495 530 480 530H385V170H480Q495 170 505.0 160.0Q515 150 515 135V35Q515 20 505.0 10.0Q495 0 480 0H70Q55 0 45.0 10.0Q35 20 35 35V135Q35 150 45.0 160.0Q55 170 70 170H165V530H70Q55 530 45.0 540.0Q35 550 35 565V665Q35 680 45.0 690.0Q55 700 70 700H480Q495 700 505.0 690.0Q515 680 515 665Z"/>
<path fill="#ffffff" transform="translate(907.429,117.000) scale(0.142857,-0.142857)" d="M755 665V565Q755 550 745.0 540.0Q735 530 720 530H295V440H610Q625 440 635.0 430.0Q645 420 645 405V305Q645 290 635.0 280.0Q625 270 610 270H295V170H720Q735 170 745.0 160.0Q755 150 755 135V35Q755 20 745.0 10.0Q735 0 720 0H110Q95 0 85.0 10.0Q75 20 75 35V665Q75 680 85.0 690.0Q95 700 110 700H720Q735 700 745.0 690.0Q755 680 755 665Z"/>
<path fill="#ffffff" transform="translate(1023.143,117.000) scale(0.142857,-0.142857)" d="M725 665V565Q725 550 715.0 540.0Q705 530 690 530H480V35Q480 20 470.0 10.0Q460 0 445 0H295Q280 0 270.0 10.0Q260 20 260 35V530H50Q35 530 25.0 540.0Q15 550 15 565V665Q15 680 25.0 690.0Q35 700 50 700H690Q705 700 715.0 690.0Q725 680 725 665Z"/>
<path fill="#ffffff" transform="translate(1166.857,117.000) scale(0.117143,-0.117143)" d="M755 665V565Q755 550 745.0 540.0Q735 530 720 530H295V440H610Q625 440 635.0 430.0Q645 420 645 405V305Q645 290 635.0 280.0Q625 270 610 270H295V170H720Q735 170 745.0 160.0Q755 150 755 135V35Q755 20 745.0 10.0Q735 0 720 0H110Q95 0 85.0 10.0Q75 20 75 35V665Q75 680 85.0 690.0Q95 700 110 700H720Q735 700 745.0 690.0Q755 680 755 665Z"/>
<path fill="#ffffff" transform="translate(1261.743,117.000) scale(0.117143,-0.117143)" d="M455 720Q621 720 718.0 647.0Q815 574 815 480Q815 440 775 440H650Q614 440 590 480Q543 555 455 555Q371 555 323.0 502.5Q275 450 275.0 350.0Q275 250 323.0 197.5Q371 145 455 145Q553 145 600 230Q622 270 660 270H785Q825 270 825 230Q825 132 725.0 56.0Q625 -20 455 -20Q259 -20 152.0 79.5Q45 179 45.0 350.0Q45 521 152.0 620.5Q259 720 455 720Z"/>
<path fill="#ffffff" transform="translate(1364.829,117.000) scale(0.117143,-0.117143)" d="M323.0 197.5Q371 145 455.0 145.0Q539 145 587.0 197.5Q635 250 635.0 350.0Q635 450 587.0 502.5Q539 555 455.0 555.0Q371 555 323.0 502.5Q275 450 275.0 350.0Q275 250 323.0 197.5ZM152.0 620.5Q259 720 455.0 720.0Q651 720 758.0 620.5Q865 521 865.0 350.0Q865 179 758.0 79.5Q651 -20 455.0 -20.0Q259 -20 152.0 79.5Q45 179 45.0 350.0Q45 521 152.0 620.5Z"/>
<path fill="#ffffff" transform="translate(1473.771,117.000) scale(0.117143,-0.117143)" d="M585 300H595V665Q595 680 605.0 690.0Q615 700 630 700H780Q795 700 805.0 690.0Q815 680 815 665V35Q815 20 805.0 10.0Q795 0 780 0H610Q578 0 555 35L305 400H295V35Q295 20 285.0 10.0Q275 0 260 0H110Q95 0 85.0 10.0Q75 20 75 35V665Q75 680 85.0 690.0Q95 700 110 700H280Q312 700 335 665Z"/>
<path fill="#ffffff" transform="translate(1580.371,117.000) scale(0.117143,-0.117143)" d="M323.0 197.5Q371 145 455.0 145.0Q539 145 587.0 197.5Q635 250 635.0 350.0Q635 450 587.0 502.5Q539 555 455.0 555.0Q371 555 323.0 502.5Q275 450 275.0 350.0Q275 250 323.0 197.5ZM152.0 620.5Q259 720 455.0 720.0Q651 720 758.0 620.5Q865 521 865.0 350.0Q865 179 758.0 79.5Q651 -20 455.0 -20.0Q259 -20 152.0 79.5Q45 179 45.0 350.0Q45 521 152.0 620.5Z"/>
<path fill="#ffffff" transform="translate(1689.314,117.000) scale(0.117143,-0.117143)" d="M616 0H495Q474 0 459.5 11.0Q445 22 440 35L305 365H295V35Q295 20 285.0 10.0Q275 0 260 0H110Q95 0 85.0 10.0Q75 20 75 35V665Q75 680 85.0 690.0Q95 700 110 700H320Q341 700 355.5 689.0Q370 678 375 665L550 240H560L735 665Q740 678 754.5 689.0Q769 700 790 700H1000Q1015 700 1025.0 690.0Q1035 680 1035 665V35Q1035 20 1025.0 10.0Q1015 0 1000 0H850Q835 0 825.0 10.0Q815 20 815 35V365H805L671 35Q666 22 651.5 11.0Q637 0 616 0Z"/>
<path fill="#ffffff" transform="translate(1821.686,117.000) scale(0.117143,-0.117143)" d="M515 665V565Q515 550 505.0 540.0Q495 530 480 530H385V170H480Q495 170 505.0 160.0Q515 150 515 135V35Q515 20 505.0 10.0Q495 0 480 0H70Q55 0 45.0 10.0Q35 20 35 35V135Q35 150 45.0 160.0Q55 170 70 170H165V530H70Q55 530 45.0 540.0Q35 550 35 565V665Q35 680 45.0 690.0Q55 700 70 700H480Q495 700 505.0 690.0Q515 680 515 665Z"/>
<path fill="#ffffff" transform="translate(1888.457,117.000) scale(0.117143,-0.117143)" d="M455 720Q621 720 718.0 647.0Q815 574 815 480Q815 440 775 440H650Q614 440 590 480Q543 555 455 555Q371 555 323.0 502.5Q275 450 275.0 350.0Q275 250 323.0 197.5Q371 145 455 145Q553 145 600 230Q622 270 660 270H785Q825 270 825 230Q825 132 725.0 56.0Q625 -20 455 -20Q259 -20 152.0 79.5Q45 179 45.0 350.0Q45 521 152.0 620.5Q259 720 455 720Z"/>
<path fill="#ffffff" transform="translate(2030.200,117.000) scale(0.117143,-0.117143)" d="M735 665V565Q735 550 725.0 540.0Q715 530 700 530H295V400H610Q625 400 635.0 390.0Q645 380 645 365V265Q645 250 635.0 240.0Q625 230 610 230H295V35Q295 20 285.0 10.0Q275 0 260 0H110Q95 0 85.0 10.0Q75 20 75 35V665Q75 680 85.0 690.0Q95 700 110 700H700Q715 700 725.0 690.0Q735 680 735 665Z"/>
<path fill="#ffffff" transform="translate(2121.571,117.000) scale(0.117143,-0.117143)" d="M323.0 197.5Q371 145 455.0 145.0Q539 145 587.0 197.5Q635 250 635.0 350.0Q635 450 587.0 502.5Q539 555 455.0 555.0Q371 555 323.0 502.5Q275 450 275.0 350.0Q275 250 323.0 197.5ZM152.0 620.5Q259 720 455.0 720.0Q651 720 758.0 620.5Q865 521 865.0 350.0Q865 179 758.0 79.5Q651 -20 455.0 -20.0Q259 -20 152.0 79.5Q45 179 45.0 350.0Q45 521 152.0 620.5Z"/>
<path fill="#ffffff" transform="translate(2230.514,117.000) scale(0.117143,-0.117143)" d="M665 310V300Q670 298 679.0 292.0Q688 286 713.0 258.0Q738 230 760 190L845 35Q851 23 844.5 11.5Q838 0 820 0H665Q619 0 600 35L515 190Q501 215 482.0 227.5Q463 240 425 240H295V35Q295 20 285.0 10.0Q275 0 260 0H110Q95 0 85.0 10.0Q75 20 75 35V665Q75 680 85.0 690.0Q95 700 110 700H475Q633 700 716.5 635.0Q800 570 800 470Q800 434 786.0 404.0Q772 374 752.0 357.5Q732 341 712.5 329.5Q693 318 679 314ZM295 400H475Q522 400 546.0 419.0Q570 438 570.0 470.0Q570 502 546.0 521.0Q522 540 475 540H295Z"/>
<path fill="#ffffff" transform="translate(2333.951,117.000) scale(0.117143,-0.117143)" d="M440 -20Q257 -20 163.5 62.0Q70 144 70 290V665Q70 680 80.0 690.0Q90 700 105 700H255Q270 700 280.0 690.0Q290 680 290 665V290Q290 222 329.5 183.5Q369 145 440.0 145.0Q511 145 550.5 183.5Q590 222 590 290V665Q590 680 600.0 690.0Q610 700 625 700H775Q790 700 800.0 690.0Q810 680 810 665V291Q810 145 715.5 62.5Q621 -20 440 -20Z"/>
<path fill="#ffffff" transform="translate(2439.380,117.000) scale(0.117143,-0.117143)" d="M616 0H495Q474 0 459.5 11.0Q445 22 440 35L305 365H295V35Q295 20 285.0 10.0Q275 0 260 0H110Q95 0 85.0 10.0Q75 20 75 35V665Q75 680 85.0 690.0Q95 700 110 700H320Q341 700 355.5 689.0Q370 678 375 665L550 240H560L735 665Q740 678 754.5 689.0Q769 700 790 700H1000Q1015 700 1025.0 690.0Q1035 680 1035 665V35Q1035 20 1025.0 10.0Q1015 0 1000 0H850Q835 0 825.0 10.0Q815 20 815 35V365H805L671 35Q666 22 651.5 11.0Q637 0 616 0Z"/>
</svg>